<svg xmlns="http://www.w3.org/2000/svg" width="250" height="250" fill="none" viewBox="0 0 250 250">
<!-- SVG created with Arrow, by QuiverAI (https://quiver.ai) -->
  <path d="m146.2 25.77c6.59-6.81 14.15-11.32 36.54-11.07 3.29-4.69 6.06-7.08 10.18-8.7 0 4.71-1.09 7.18-1.17 11.99l8.27-7.7c-0.09 4.65-2.1 7.97-3.78 10.65l9.39 10.77v2l11.09 17.94c0.97 1.64 1.04 4.02-0.23 6.04-1.17 2-1.29 4.39-3.32 5.14-2.55 0.98-5.69 1.63-8.1-0.12-2.33-1.66-1.85-3.84-2.98-5.39-2.99-4.11-8.14-6.71-12.46-6.76-8.8-0.1-10.01-9.74-9.73-15.84-6 7.99-3.23 16.45 3.74 20.56 0.56 11.67 11.59 21.5 12.15 34.63 0.23 5.34-0.62 8.95-1.24 11.3-0.78 0-1.42-1.33-2.13-3.6-2.44-7.36-9.49-11.3-16.59-13.7 8.33 5.88 13.91 11.76 13.91 21.2 7.36 0.5 16.67 1.56 27.38 1.68 6.37 0.08 7.11 6.67 5 11.42-3.29 7.62-5.24 12.55-6.64 20.77-0.56 3.4-9.56 13.81-19.15 17.18-1.58-2.35-0.11-13.05 2.5-16.04 1.31-0.7 4.19-0.26 6.36 0 2.73 0.34 2.81-3.01 3.08-5.19 4.86-1.66 4.43-9.72 4.31-14.62-0.04-2.22-1.45-3.1-2.85-2.53-9.59 3.64-15.89 5.51-27.3 5.74-8.61 0.19-12.37-6.62-15.7-10.45 2.21 10.14 7.52 15.86 15 15.54-11.51 13.3-25.19 19.18-42.5 23.41-6.15 1.59-12.11 3.67-15.28 8.1 1.17-7.31-0.08-13.81-3.61-18.9 2.78 16.22-1.67 32.24-21.12 49.84-7.4 6.1-10.49 8.9-10.29 16.85 0.16 6.55 1.01 16.57 5.91 21.7 4.3 3.83 5.98 7.85 7.7 13.31-2.52 1.21-11.12 0.74-13.61-0.55-1.76-0.9-0.31-6.36-0.83-7.34-1.58-3.07-5.3-3.27-5.58-4.97-0.39-9.44-2.8-21.03-6.6-32.35-0.93-3.65 1.52-4.55 4.15-7.75 7.5-7.24 9.05-12.25 6.35-18.25-4.68-8.8-6.7-13.7-5.49-31.89-7.71 2.4-13.21 10.34-13.81 22.66-0.78 16.49-13.21 33.61-29.2 36.24-4.94 0.82-10.17 0.19-13.08-0.82 12.19-2.99 22.34-12.93 24.14-33.84 1.25-14.95 11.19-31.83 30.19-31.83h5.66c5.46-9.17 12.96-13.32 22.51-17.07 19.56-7.91 34.36-21.98 37.21-42.55-3.53 4.51-6.38 6.69-11.83 6.69 6.04-6.22 6.2-18.29 13.17-32.63-3.76 0.57-6.62 2.75-9.47 4.93 3.76-12.07 9.8-19.38 20.55-24.72-2.29-1.45-5.83-1.69-10.77-1.11z" fill="url(#paint0_linear_101_2582)"/>
  <path d="m140.7 158c-9.79 1.89-15.83 7.23-20.21 15.74-4.3 8.51-10.34 14.96-13.47 25.45-0.39 1.59 1.7 3.47 3.69 6.1 6.23 7.95 12.42 15.64 15.01 22.45 1.05 2.04 3.46 1.14 4.91 3.14 0.82 1.16-0.04 6.15 0.66 8.27 1.13 1.21 8.63 1.48 13.77 1.13-1.13-5.2-4.93-9.85-9.95-15.19-6.04-6.49-10.4-13.8-13.89-22.31-1.21-3.59-0.16-6.22 2.25-8.85 7.82-9.44 15.32-18.32 17.23-35.93z" fill="url(#paint1_linear_101_2582)"/>
  <defs>
    <linearGradient id="paint0_linear_101_2582" x1="24.83" x2="232.7" y1="6" y2="6" gradientUnits="userSpaceOnUse">
      <stop stop-color="#204B9A" offset="0"/>
      <stop stop-color="#2551A8" offset="1"/>
    </linearGradient>
    <linearGradient id="paint1_linear_101_2582" x1="106.9" x2="145.5" y1="158" y2="158" gradientUnits="userSpaceOnUse">
      <stop stop-color="#204B9A" offset="0"/>
      <stop stop-color="#2551A8" offset="1"/>
    </linearGradient>
  </defs>
</svg>
